<svg width="22" height="22" viewBox="0 0 22 22" fill="none" xmlns="http://www.w3.org/2000/svg">
<path d="M6.15234 14.2139V8.375" stroke="white" stroke-linecap="round" stroke-linejoin="round"/>
<path d="M6.36031 20.0527C7.8575 20.0527 9.07122 18.8389 9.07122 17.3418C9.07122 15.8446 7.8575 14.6309 6.36031 14.6309C4.86313 14.6309 3.64941 15.8446 3.64941 17.3418C3.64941 18.8389 4.86313 20.0527 6.36031 20.0527Z" fill="#D9D9D9" stroke="white" stroke-linecap="round" stroke-linejoin="round"/>
<path d="M6.15178 8.37486C7.5338 8.37486 8.65415 7.25451 8.65415 5.87249C8.65415 4.49047 7.5338 3.37012 6.15178 3.37012C4.76976 3.37012 3.64941 4.49047 3.64941 5.87249C3.64941 7.25451 4.76976 8.37486 6.15178 8.37486Z" fill="#88E79A" stroke="#88E79A" stroke-linecap="round" stroke-linejoin="round"/>
<path d="M17.8295 8.37486C19.2115 8.37486 20.3319 7.25451 20.3319 5.87249C20.3319 4.49047 19.2115 3.37012 17.8295 3.37012C16.4475 3.37012 15.3271 4.49047 15.3271 5.87249C15.3271 7.25451 16.4475 8.37486 17.8295 8.37486Z" fill="#D9D9D9" stroke="white" stroke-linecap="round" stroke-linejoin="round"/>
<path d="M6.26074 14.214C6.6361 12.7543 7.97069 11.6699 9.54719 11.6783L12.4082 11.6866C14.5936 11.695 16.4537 10.2936 17.1377 8.3418" stroke="white" stroke-linecap="round" stroke-linejoin="round"/>
</svg>
