<svg width="24" height="24" viewBox="0 0 24 24" fill="none" xmlns="http://www.w3.org/2000/svg">
<g clip-path="url(#clip0_10_5640)">
<circle cx="17.3333" cy="5.44759" r="3.83333" fill="#88E79A" stroke="#1F2126"/>
<path d="M10.8937 4.35742C7.79056 4.35742 5.26868 6.8793 5.26868 9.98242V12.6918C5.26868 13.2637 5.02493 14.1355 4.7343 14.623L3.65618 16.4137C2.99055 17.5199 3.44993 18.748 4.66868 19.1605C8.7093 20.5105 13.0687 20.5105 17.1093 19.1605C18.2437 18.7855 18.7406 17.4449 18.1218 16.4137L17.0437 14.623C16.7624 14.1355 16.5187 13.2637 16.5187 12.6918V9.98242C16.5187 6.88867 13.9874 4.35742 10.8937 4.35742Z" stroke="white" stroke-width="1.2" stroke-miterlimit="10" stroke-linecap="round"/>
<path d="M12.6279 4.62852C12.3373 4.54414 12.0373 4.47852 11.7279 4.44102C10.8279 4.32852 9.96543 4.39414 9.15918 4.62852C9.43105 3.93477 10.1061 3.44727 10.8936 3.44727C11.6811 3.44727 12.3561 3.93477 12.6279 4.62852Z" stroke="white" stroke-width="1.2" stroke-miterlimit="10" stroke-linecap="round" stroke-linejoin="round"/>
<path d="M13.7061 19.498C13.7061 21.0449 12.4404 22.3105 10.8936 22.3105C10.1248 22.3105 9.4123 21.9918 8.90605 21.4855C8.3998 20.9793 8.08105 20.2668 8.08105 19.498" stroke="white" stroke-width="1.2" stroke-miterlimit="10"/>
</g>
<defs>
<clipPath id="clip0_10_5640">
<rect width="24" height="24" fill="white"/>
</clipPath>
</defs>
</svg>
